<svg xmlns="http://www.w3.org/2000/svg" width="1150" height="510" viewBox="0 0 1150 510">
  <style>.title{font:700 28px Arial;fill:#1f2937}.box{rx:14;stroke-width:2.5}.h{font:700 16px Arial;fill:#111827}.t{font:14px Arial;fill:#374151}.arrow{stroke:#64748b;stroke-width:2.2;fill:none;marker-end:url(#arrow)}</style>
  <defs><marker id="arrow" markerWidth="10" markerHeight="10" refX="8" refY="3" orient="auto"><path d="M0,0 L0,6 L9,3 z" fill="#64748b"/></marker></defs>
  <rect width="1150" height="510" fill="#fff"/>
  <text x="575" y="45" text-anchor="middle" class="title">Spring AI Starter → AutoConfiguration → Bean 装配链</text>
  <rect x="55" y="90" width="290" height="92" class="box" fill="#d0ebff" stroke="#1971c2"/><text x="200" y="122" text-anchor="middle" class="h">spring-ai-starter-model-openai</text><text x="200" y="150" text-anchor="middle" class="t">引入 boot starter</text><text x="200" y="170" text-anchor="middle" class="t">autoconfigure + provider</text>
  <rect x="430" y="90" width="290" height="92" class="box" fill="#fff3bf" stroke="#e67700"/><text x="575" y="122" text-anchor="middle" class="h">AutoConfiguration.imports</text><text x="575" y="150" text-anchor="middle" class="t">加载 OpenAiChatAutoConfiguration</text><text x="575" y="170" text-anchor="middle" class="t">ChatClientAutoConfiguration</text>
  <rect x="805" y="90" width="290" height="92" class="box" fill="#ebfbee" stroke="#2f9e44"/><text x="950" y="122" text-anchor="middle" class="h">条件门</text><text x="950" y="150" text-anchor="middle" class="t">@ConditionalOnProperty / Class</text><text x="950" y="170" text-anchor="middle" class="t">@ConditionalOnMissingBean</text>
  <rect x="100" y="295" width="290" height="98" class="box" fill="#e7f5ff" stroke="#364fc7"/><text x="245" y="326" text-anchor="middle" class="h">OpenAiChatModel Bean</text><text x="245" y="352" text-anchor="middle" class="t">OpenAIClient + AsyncClient</text><text x="245" y="374" text-anchor="middle" class="t">ToolCallingManager + ObservationRegistry</text>
  <rect x="430" y="295" width="290" height="98" class="box" fill="#e7f5ff" stroke="#364fc7"/><text x="575" y="326" text-anchor="middle" class="h">ChatClient.Builder Bean</text><text x="575" y="352" text-anchor="middle" class="t">@Scope("prototype")</text><text x="575" y="374" text-anchor="middle" class="t">ChatClientCustomizer 链 + ChatModel</text>
  <rect x="760" y="295" width="290" height="98" class="box" fill="#e3fafc" stroke="#0b7285"/><text x="905" y="326" text-anchor="middle" class="h">VectorStore Bean</text><text x="905" y="352" text-anchor="middle" class="t">EmbeddingModel + DataSource</text><text x="905" y="374" text-anchor="middle" class="t">BatchingStrategy + ObservationRegistry</text>
  <path d="M345 136 H430" class="arrow"/><path d="M720 136 H805" class="arrow"/><path d="M950 182 C900 250 730 275 245 295" class="arrow"/><path d="M950 182 C880 260 710 275 575 295" class="arrow"/><path d="M950 182 C950 235 930 260 905 295" class="arrow"/>
</svg>
